<svg xmlns="http://www.w3.org/2000/svg" width="500" height="500"><path d="M0 0 C165 0 330 0 500 0 C500 165 500 330 500 500 C335 500 170 500 0 500 C0 335 0 170 0 0 Z " fill="#FEFEFE" transform="translate(0,0)"></path><path d="M0 0 C3.35409194 -0.05859857 6.70805017 -0.09379582 10.0625 -0.125 C11.47692383 -0.15013672 11.47692383 -0.15013672 12.91992188 -0.17578125 C19.88459545 -0.22431556 25.52738902 -0.20956726 30.9375 4.625 C33.41898321 8.68560889 34.015608 11.36513441 33 16 C30.98497111 19.75212276 29.54533858 21.63644095 26 24 C27.33229368 28.41239838 29.06225948 32.20332474 31.375 36.1875 C32.25285156 37.72470703 32.25285156 37.72470703 33.1484375 39.29296875 C34.90889535 41.86680269 36.3981864 43.33231771 39 45 C42.56782121 43.38584383 43.81629489 42.4107228 45.44140625 38.77734375 C45.83244521 37.50258678 46.20536549 36.22216795 46.5625 34.9375 C46.9794465 33.56830046 47.39871985 32.19980733 47.8203125 30.83203125 C48.02043945 30.16896973 48.22056641 29.5059082 48.42675781 28.82275391 C49.14579256 26.5364194 50.01347335 24.33579104 50.9375 22.125 C53.93628815 14.86867311 56.420123 7.41284658 59 0 C60.32 0 61.64 0 63 0 C65.21354167 6.640625 67.42708333 13.28125 69.640625 19.921875 C70.03443359 21.10072266 70.42824219 22.27957031 70.83398438 23.49414062 C71.60197616 25.80326165 72.36385534 28.11442605 73.11914062 30.42773438 C73.46654297 31.48798828 73.81394531 32.54824219 74.171875 33.640625 C74.47706055 34.57938477 74.78224609 35.51814453 75.09667969 36.48535156 C76.57306206 40.59528086 77.28052704 42.52035136 81 45 C81 45.66 81 46.32 81 47 C75.39 47 69.78 47 64 47 C64.33 46.01 64.66 45.02 65 44 C65.66 44 66.32 44 67 44 C66.67 42.7625 66.34 41.525 66 40.25 C65.20108841 37.25408155 65 35.19892281 65 32 C60.38 32 55.76 32 51 32 C50.67 35.63 50.34 39.26 50 43 C50.99 43.66 51.98 44.32 53 45 C53 45.66 53 46.32 53 47 C49.62650589 47.25663005 46.25155991 47.47534842 42.875 47.6875 C41.44800781 47.79674805 41.44800781 47.79674805 39.9921875 47.90820312 C30.4037162 48.47418928 30.4037162 48.47418928 26 45 C24.15180637 42.25994123 22.7592948 39.37100946 21.375 36.375 C20.64563307 34.81425678 19.90394501 33.25919585 19.1484375 31.7109375 C18.83052246 31.02306152 18.51260742 30.33518555 18.18505859 29.62646484 C17.0958147 27.80487141 17.0958147 27.80487141 14.86572266 27.26806641 C14.25003418 27.17960449 13.6343457 27.09114258 13 27 C13.05985162 29.62748631 13.14676224 32.24916995 13.25 34.875 C13.26417969 35.62136719 13.27835937 36.36773437 13.29296875 37.13671875 C13.35986341 39.57138381 13.35986341 39.57138381 14 43 C15.90628782 44.60337399 15.90628782 44.60337399 18 45 C18 45.66 18 46.32 18 47 C11.73 47 5.46 47 -1 47 C-0.67 46.01 -0.34 45.02 0 44 C1.32 43.34 2.64 42.68 4 42 C4 29.13 4 16.26 4 3 C2.68 3 1.36 3 0 3 C0 2.01 0 1.02 0 0 Z " fill="#0A0A0A" transform="translate(326,219)"></path><path d="M0 0 C4.21752518 -0.02473064 8.43501186 -0.04287453 12.65258789 -0.05493164 C14.08716568 -0.05995842 15.52173836 -0.06678079 16.95629883 -0.07543945 C19.01905582 -0.08757752 21.08174504 -0.09324486 23.14453125 -0.09765625 C24.38565674 -0.10289307 25.62678223 -0.10812988 26.90551758 -0.11352539 C30 0 30 0 33 1 C33.99 0.67 34.98 0.34 36 0 C36 0.99 36 1.98 36 3 C37.32 3 38.64 3 40 3 C42.44005612 7.88011223 41.31256031 15.36598446 41.35009766 20.79418945 C41.36668362 22.55474034 41.39400854 24.31522317 41.43212891 26.07543945 C41.48677749 28.61184653 41.50874861 31.14667807 41.5234375 33.68359375 C41.54610687 34.47116562 41.56877625 35.25873749 41.59213257 36.07017517 C41.58349609 38.29467773 41.58349609 38.29467773 41 42 C38.59228516 43.89477539 38.59228516 43.89477539 36 45 C35.34 45.66 34.68 46.32 34 47 C31.34708243 47.17510386 28.80013826 47.23155483 26.1484375 47.1953125 C25.37440582 47.1924826 24.60037415 47.18965271 23.80288696 47.18673706 C21.32676843 47.17552754 18.8510095 47.15042203 16.375 47.125 C14.69792188 47.11497118 13.02083811 47.10584516 11.34375 47.09765625 C7.22902777 47.07558574 3.11457489 47.04105102 -1 47 C-1 46.34 -1 45.68 -1 45 C0.65 44.34 2.3 43.68 4 43 C4 30.13 4 17.26 4 4 C2.68 3.34 1.36 2.68 0 2 C0 1.34 0 0.68 0 0 Z " fill="#F4F4F4" transform="translate(290,219)"></path><path d="M0 0 C4.88565966 2.90265662 8.8650172 7.93397162 10.9921875 13.18359375 C12.54247554 21.82269889 12.44145061 29.63496226 8.2421875 37.43359375 C2.67614697 44.23653218 -2.29486209 46.65993259 -10.9453125 47.62109375 C-16.5068956 47.45941982 -20.5734369 44.47922255 -24.515625 40.76171875 C-29.38509361 35.33823875 -31.5276787 29.6941414 -31.22265625 22.5078125 C-30.49579309 14.64447463 -28.70454439 8.90621988 -23.0078125 3.18359375 C-15.82691009 -2.08037285 -8.29380087 -3.37238207 0 0 Z " fill="#0C0C0C" transform="translate(100.0078125,219.81640625)"></path><path d="M0 0 C3.87474457 -0.11668214 7.74903396 -0.18741231 11.625 -0.25 C13.26662109 -0.30027344 13.26662109 -0.30027344 14.94140625 -0.3515625 C21.30703343 -0.42872162 25.18329427 -0.32063305 30 4 C32.87300074 6.87300074 32.77068377 9.50539943 33.1015625 13.453125 C32.95084219 17.23272664 31.48562323 19.23819641 29 22 C28.01 22.66 27.02 23.32 26 24 C27.68796856 28.50124948 29.7857387 32.74056644 32 37 C32.34417969 37.67160156 32.68835937 38.34320313 33.04296875 39.03515625 C35.07726783 43.04894738 35.07726783 43.04894738 39 45 C39 45.99 39 46.98 39 48 C35.02283961 48.31817283 32.50341745 48.24164038 28.875 46.5 C23.59028334 41.90459421 20.79502934 35.93668199 18.08984375 29.56640625 C17.08774989 27.79599911 17.08774989 27.79599911 14.87890625 27.27734375 C14.25886719 27.18582031 13.63882813 27.09429687 13 27 C13.05985162 29.62748631 13.14676224 32.24916995 13.25 34.875 C13.26417969 35.62136719 13.27835938 36.36773437 13.29296875 37.13671875 C13.35986341 39.57138381 13.35986341 39.57138381 14 43 C15.90628782 44.60337399 15.90628782 44.60337399 18 45 C18 45.66 18 46.32 18 47 C12.06 47 6.12 47 0 47 C1 44 1 44 2.54418945 42.82299805 C4.90986964 39.86064119 4.36569748 36.45803747 4.29296875 32.83203125 C4.28872391 32.03721848 4.28447906 31.2424057 4.28010559 30.42350769 C4.2633193 27.88615979 4.22566824 25.34960762 4.1875 22.8125 C4.17245305 21.09180835 4.15876466 19.37110424 4.14648438 17.65039062 C4.11341607 13.43328738 4.06163495 9.21677858 4 5 C2.68 4.34 1.36 3.68 0 3 C0 2.01 0 1.02 0 0 Z " fill="#080808" transform="translate(29,219)"></path><path d="M0 0 C5.94 0 11.88 0 18 0 C18 0.66 18 1.32 18 2 C17.35546875 2.36738281 16.7109375 2.73476562 16.046875 3.11328125 C13.46755139 5.49078755 13.4609735 7.31731631 13.29785156 10.73901367 C13.28206055 11.54701416 13.26626953 12.35501465 13.25 13.1875 C13.1675 15.765625 13.085 18.34375 13 21 C18.94 21 24.88 21 31 21 C30.67 15.39 30.34 9.78 30 4 C28.68 3.34 27.36 2.68 26 2 C26 1.34 26 0.68 26 0 C31.94 0 37.88 0 44 0 C44 0.66 44 1.32 44 2 C42.68 2.33 41.36 2.66 40 3 C40 16.53 40 30.06 40 44 C41.65 44.33 43.3 44.66 45 45 C45 45.66 45 46.32 45 47 C38.73 47 32.46 47 26 47 C26.33 46.01 26.66 45.02 27 44 C27.99 44 28.98 44 30 44 C30.33 37.4 30.66 30.8 31 24 C25.06 24 19.12 24 13 24 C13.33 29.94 13.66 35.88 14 42 C15.65 42.66 17.3 43.32 19 44 C19 44.99 19 45.98 19 47 C12.73 47 6.46 47 0 47 C0 46.34 0 45.68 0 45 C1.32 44.34 2.64 43.68 4 43 C4 30.13 4 17.26 4 4 C2.68 3.34 1.36 2.68 0 2 C0 1.34 0 0.68 0 0 Z " fill="#090909" transform="translate(242,219)"></path><path d="M0 0 C3.16658663 -0.05880804 6.33302993 -0.09386406 9.5 -0.125 C10.386875 -0.14175781 11.27375 -0.15851563 12.1875 -0.17578125 C17.8180364 -0.21718225 22.63330921 0.23708705 28 2 C31.69091534 5.78555419 33.16227591 8.53168962 33.3125 13.75 C33.24913295 18.63630347 32.35632281 21.29038005 29 25 C25.60424213 27.86752887 23.7654615 28.93513038 19.3125 29.3125 C16 29 16 29 13 28 C13.33 33.28 13.66 38.56 14 44 C15.65 44.33 17.3 44.66 19 45 C19 45.66 19 46.32 19 47 C12.73 47 6.46 47 0 47 C0 46.34 0 45.68 0 45 C1.98 44.505 1.98 44.505 4 44 C4 31.13 4 18.26 4 5 C2.68 4.34 1.36 3.68 0 3 C0 2.01 0 1.02 0 0 Z " fill="#0C0C0C" transform="translate(410,219)"></path><path d="M0 0 C5.32048848 3.33834572 7.40548469 6.91089972 9 13 C9.39371378 16.20166562 9.42129123 19.34011607 9.375 22.5625 C9.38660156 23.37396484 9.39820312 24.18542969 9.41015625 25.02148438 C9.37854226 31.5497726 8.3250089 36.54931494 3.6875 41.4375 C0.40248095 43.3473948 -1.25734882 43.6237752 -5 43 C-9.61368566 40.58330751 -11.54160704 36.98944927 -13.26953125 32.25 C-14.203187 28.09598081 -14.4386379 24.1233464 -14.5 19.875 C-14.51844971 19.12331543 -14.53689941 18.37163086 -14.5559082 17.59716797 C-14.48453647 11.14261978 -12.58192829 5.75405684 -8.125 1 C-5.10576711 -0.42081548 -3.30742161 -0.52918746 0 0 Z " fill="#F9F9F9" transform="translate(93,221)"></path><path d="M0 0 C1.32 0 2.64 0 4 0 C4.59279785 1.77839355 5.18558344 3.5567912 5.77832031 5.33520508 C6.30742247 6.92234683 6.83672395 8.50942214 7.36621094 10.09643555 C8.8777101 14.62786088 10.38519489 19.1605712 11.88671875 23.6953125 C12.35259399 25.09970581 12.35259399 25.09970581 12.82788086 26.5324707 C13.43277567 28.35612366 14.03649462 30.18016716 14.63891602 32.00463867 C16.57262941 38.10022965 16.57262941 38.10022965 19 44 C21.04105639 44.88693303 21.04105639 44.88693303 23 45 C23 45.66 23 46.32 23 47 C17.06 47 11.12 47 5 47 C5 46.01 5 45.02 5 44 C5.99 44 6.98 44 8 44 C7.01 40.37 6.02 36.74 5 33 C0.71 32.67 -3.58 32.34 -8 32 C-8.33 35.63 -8.66 39.26 -9 43 C-8.01 43.66 -7.02 44.32 -6 45 C-6 45.66 -6 46.32 -6 47 C-10.62 47 -15.24 47 -20 47 C-20 46.34 -20 45.68 -20 45 C-19.22132568 44.57025879 -18.44265137 44.14051758 -17.64038086 43.69775391 C-14.45833432 41.65171122 -13.95094162 40.37121693 -12.75390625 36.8359375 C-12.39417725 35.80331787 -12.03444824 34.77069824 -11.66381836 33.70678711 C-11.3003833 32.60729736 -10.93694824 31.50780762 -10.5625 30.375 C-10.17779541 29.25810791 -9.79309082 28.14121582 -9.39672852 26.99047852 C-8.6198695 24.73283838 -7.84986592 22.47282703 -7.08691406 20.21044922 C-5.58339275 15.76945524 -4.01073033 11.35414478 -2.4375 6.9375 C-1.62277943 4.62577283 -0.81127819 2.3129382 0 0 Z " fill="#0C0C0C" transform="translate(165,219)"></path><path d="M0 0 C9.9 0 19.8 0 30 0 C30 3.63 30 7.26 30 11 C29.34 11 28.68 11 28 11 C27.54625 10.030625 27.0925 9.06125 26.625 8.0625 C25.34213779 4.92920418 25.34213779 4.92920418 23 4 C19.99525503 3.86440682 17.00931153 3.95700984 14 4 C13.67 9.61 13.34 15.22 13 21 C14.60875 20.9175 16.2175 20.835 17.875 20.75 C18.77992188 20.70359375 19.68484375 20.6571875 20.6171875 20.609375 C23.17110544 20.24388852 23.17110544 20.24388852 24.3203125 17.953125 C24.65675781 16.98632812 24.65675781 16.98632812 25 16 C25.66 16 26.32 16 27 16 C27 20.62 27 25.24 27 30 C26.34 30 25.68 30 25 30 C24.77570313 29.35546875 24.55140625 28.7109375 24.3203125 28.046875 C23.17110544 25.75611148 23.17110544 25.75611148 20.6171875 25.390625 C19.25980469 25.32101563 19.25980469 25.32101563 17.875 25.25 C16.96492188 25.19328125 16.05484375 25.1365625 15.1171875 25.078125 C14.06917969 25.03945312 14.06917969 25.03945312 13 25 C13.14053872 27.62538284 13.28718947 30.25017427 13.4375 32.875 C13.47681641 33.62136719 13.51613281 34.36773437 13.55664062 35.13671875 C13.71573624 39.19986864 13.71573624 39.19986864 15 43 C18.77257906 43.47570174 22.25025477 43.71826106 26 43 C27.95060293 41.04080411 28.94645527 39.25223308 30.09765625 36.75 C30.39542969 36.1725 30.69320313 35.595 31 35 C31.66 35 32.32 35 33 35 C32.85831863 36.43791516 32.71148957 37.8753237 32.5625 39.3125 C32.48128906 40.11300781 32.40007812 40.91351563 32.31640625 41.73828125 C32 44 32 44 31 47 C20.44 47 9.88 47 -1 47 C-1 46.34 -1 45.68 -1 45 C0.65 44.34 2.3 43.68 4 43 C4 30.13 4 17.26 4 4 C2.68 3.34 1.36 2.68 0 2 C0 1.34 0 0.68 0 0 Z " fill="#060606" transform="translate(290,219)"></path><path d="M0 0 C0.99 0.33 1.98 0.66 3 1 C3 1.66 3 2.32 3 3 C5.475 3.99 5.475 3.99 8 5 C8.07402793 10.51754805 8.12854366 16.03480856 8.16479492 21.55273438 C8.17990325 23.43071526 8.20039094 25.30866076 8.22631836 27.18652344 C8.26261246 29.88225019 8.27970545 32.57751146 8.29296875 35.2734375 C8.30845261 36.11619232 8.32393646 36.95894714 8.33988953 37.82723999 C8.34057617 40.19287109 8.34057617 40.19287109 8 44 C4.54785147 46.30143236 3.76520676 46.13833854 -0.1875 45.625 C-1.08855469 45.51414062 -1.98960937 45.40328125 -2.91796875 45.2890625 C-3.60503906 45.19367188 -4.29210937 45.09828125 -5 45 C-6.23868281 41.28395157 -6.18154462 37.80969504 -6.203125 33.9375 C-6.20882507 33.14980225 -6.21452515 32.36210449 -6.22039795 31.55053711 C-6.22983636 29.8862441 -6.23637733 28.22193249 -6.24023438 26.55761719 C-6.24996397 24.00943659 -6.28100686 21.46205467 -6.3125 18.9140625 C-6.319028 17.29687979 -6.32427927 15.67969131 -6.328125 14.0625 C-6.3404718 13.29993896 -6.3528186 12.53737793 -6.36553955 11.75170898 C-6.3433378 6.49302251 -6.3433378 6.49302251 -4.60449219 3.99609375 C-3 3 -3 3 -1 3 C-0.67 2.01 -0.34 1.02 0 0 Z " fill="#F3F3F3" transform="translate(287,218)"></path><path d="M0 0 C1.73828125 1.30078125 1.73828125 1.30078125 2.34765625 3.68359375 C2.3940625 4.58851563 2.44046875 5.4934375 2.48828125 6.42578125 C2.545 7.33585938 2.60171875 8.2459375 2.66015625 9.18359375 C2.6859375 9.88226563 2.71171875 10.5809375 2.73828125 11.30078125 C-1.01548027 10.04952741 -1.50245164 8.73554085 -3.26171875 5.30078125 C-3.26171875 4.64078125 -3.26171875 3.98078125 -3.26171875 3.30078125 C-8.58342369 3.00515758 -8.58342369 3.00515758 -13.26171875 5.30078125 C-13.9293066 8.67326741 -13.9293066 8.67326741 -13.26171875 12.30078125 C-10.70251724 15.65973323 -7.8671576 17.55790796 -4.26171875 19.61328125 C0.16220251 22.31632232 3.01896038 25.34913714 4.73828125 30.30078125 C5.15085045 35.13373479 4.45107408 38.96073073 2.17578125 43.23828125 C-2.14818716 46.89702375 -6.80601796 48.43042469 -12.44921875 48.67578125 C-16.46677447 48.28061183 -18.15417282 47.80466538 -21.26171875 45.30078125 C-21.96875 42.3828125 -21.96875 42.3828125 -22.07421875 39.11328125 C-22.14576172 37.48326172 -22.14576172 37.48326172 -22.21875 35.8203125 C-22.23292969 34.98886719 -22.24710937 34.15742188 -22.26171875 33.30078125 C-21.60171875 33.30078125 -20.94171875 33.30078125 -20.26171875 33.30078125 C-19.92398438 33.92726562 -19.58625 34.55375 -19.23828125 35.19921875 C-18.79226562 36.01648438 -18.34625 36.83375 -17.88671875 37.67578125 C-17.22542969 38.89394531 -17.22542969 38.89394531 -16.55078125 40.13671875 C-15.31732945 42.40892427 -15.31732945 42.40892427 -13.26171875 44.30078125 C-9.76171875 44.71744792 -9.76171875 44.71744792 -6.26171875 44.30078125 C-3.76140221 40.55030643 -3.72568321 38.74221859 -4.26171875 34.30078125 C-6.84109189 30.99595942 -9.9742143 28.76162564 -13.32421875 26.30078125 C-20.88403436 20.64163762 -20.88403436 20.64163762 -21.63671875 15.9765625 C-21.90932334 10.27742288 -21.20531995 6.67071772 -17.26171875 2.30078125 C-12.54982369 -1.85677321 -5.81877899 -1.79889713 0 0 Z " fill="#0E0E0E" transform="translate(138.26171875,218.69921875)"></path><path d="M0 0 C5.94 0 11.88 0 18 0 C17.67 0.99 17.34 1.98 17 3 C16.34 3 15.68 3 15 3 C16.14281146 5.81376295 17.28908741 8.62602416 18.4375 11.4375 C18.76298828 12.23994141 19.08847656 13.04238281 19.42382812 13.86914062 C19.73642578 14.63291016 20.04902344 15.39667969 20.37109375 16.18359375 C20.65911865 16.89056396 20.94714355 17.59753418 21.24389648 18.32592773 C21.88053845 19.99832767 21.88053845 19.99832767 23 21 C23.98293267 18.75157909 24.96144466 16.50140453 25.9375 14.25 C26.21529297 13.61578125 26.49308594 12.9815625 26.77929688 12.328125 C28.10720894 9.25632842 29.34366167 6.28999974 30 3 C28.68 3 27.36 3 26 3 C26 2.01 26 1.02 26 0 C30.62 0 35.24 0 40 0 C40 0.99 40 1.98 40 3 C39.27296875 3.15597656 38.5459375 3.31195313 37.796875 3.47265625 C33.59881159 5.76517412 32.3078225 9.24217501 30.25 13.4375 C29.85167969 14.21416016 29.45335937 14.99082031 29.04296875 15.79101562 C26.69576414 20.4098369 24.86696623 24.17796864 24.90234375 29.44921875 C24.90717773 30.72055664 24.90717773 30.72055664 24.91210938 32.01757812 C24.92048828 32.89865234 24.92886719 33.77972656 24.9375 34.6875 C24.94201172 35.58017578 24.94652344 36.47285156 24.95117188 37.39257812 C24.96295017 39.59511987 24.97939836 41.79752599 25 44 C26.65 44.33 28.3 44.66 30 45 C30 45.66 30 46.32 30 47 C23.4 47 16.8 47 10 47 C10 46.34 10 45.68 10 45 C11.65 44.34 13.3 43.68 15 43 C16.30717616 29.34727122 13.87116902 20.34745463 6.82617188 8.59375 C6 7 6 7 6 5 C5.195625 4.731875 4.39125 4.46375 3.5625 4.1875 C2.716875 3.795625 1.87125 3.40375 1 3 C0.67 2.01 0.34 1.02 0 0 Z " fill="#090909" transform="translate(445,219)"></path><path d="M0 0 C0.66 0 1.32 0 2 0 C2 4.62 2 9.24 2 14 C1.34 14 0.68 14 0 14 C-0.474375 12.865625 -0.94875 11.73125 -1.4375 10.5625 C-2.63622083 7.24259834 -2.63622083 7.24259834 -4 6 C-6.64 5.67 -9.28 5.34 -12 5 C-11.505 25.295 -11.505 25.295 -11 46 C-9.35 46.33 -7.7 46.66 -6 47 C-6 47.66 -6 48.32 -6 49 C-12.6 49 -19.2 49 -26 49 C-26 48.34 -26 47.68 -26 47 C-25.18958252 46.64574951 -24.37916504 46.29149902 -23.54418945 45.92651367 C-20.55995966 44.12450574 -20.55995966 44.12450574 -20.34057617 40.0793457 C-20.29945508 38.4452645 -20.28529411 36.81036175 -20.29296875 35.17578125 C-20.27784744 34.31438034 -20.26272614 33.45297943 -20.24714661 32.56547546 C-20.20415897 29.81421967 -20.19542126 27.06405862 -20.1875 24.3125 C-20.16436419 22.44723629 -20.13900077 20.58199879 -20.11132812 18.71679688 C-20.04836679 14.14443402 -20.01611795 9.57275828 -20 5 C-21.62534361 5.23852396 -23.24719974 5.50090277 -24.8671875 5.7734375 C-25.77065918 5.91700684 -26.67413086 6.06057617 -27.60498047 6.20849609 C-30.07778023 6.78232919 -30.07778023 6.78232919 -31.32861328 8.67822266 C-32.25703932 10.82349169 -32.25703932 10.82349169 -33 14 C-33.66 14 -34.32 14 -35 14 C-34.67 9.71 -34.34 5.42 -34 1 C-33.00556885 1.00523682 -32.0111377 1.01047363 -30.98657227 1.01586914 C-27.30966079 1.03392041 -23.63275325 1.04543246 -19.95581055 1.05493164 C-18.36205386 1.05997157 -16.76830181 1.0668035 -15.17456055 1.07543945 C-12.88849747 1.08751999 -10.60249533 1.09323155 -8.31640625 1.09765625 C-7.59973282 1.10281754 -6.88305939 1.10797882 -6.14466858 1.11329651 C-4.42936328 1.11349263 -2.71418734 1.06192007 -1 1 C-0.67 0.67 -0.34 0.34 0 0 Z " fill="#070707" transform="translate(236,217)"></path><path d="M0 0 C3.35409194 -0.05859857 6.70805017 -0.09379582 10.0625 -0.125 C11.47692383 -0.15013672 11.47692383 -0.15013672 12.91992188 -0.17578125 C19.35507487 -0.22062552 25.03468536 -0.12894384 30.4375 3.75 C32.44797604 6.6450855 32.31364861 8.54986529 32 12 C30.35 12.66 28.7 13.32 27 14 C24.82724032 11.82724032 23.27495651 9.9073565 22.375 6.9375 C20.58873601 3.97522956 20.58873601 3.97522956 13 3 C13.33 16.2 13.66 29.4 14 43 C15.32 43.66 16.64 44.32 18 45 C18 45.66 18 46.32 18 47 C11.73 47 5.46 47 -1 47 C-0.67 46.01 -0.34 45.02 0 44 C1.32 43.34 2.64 42.68 4 42 C4 29.13 4 16.26 4 3 C2.68 3 1.36 3 0 3 C0 2.01 0 1.02 0 0 Z " fill="#090909" transform="translate(326,219)"></path><path d="M0 0 C6 0 6 0 8.8125 1.875 C11.79199917 6.13142739 11.8911825 9.9053623 12 15 C12.33 14.01 12.66 13.02 13 12 C13.99 12 14.98 12 16 12 C17.61949011 9.42786866 18.04408751 8.32330841 17.625 5.25 C17.41875 4.5075 17.2125 3.765 17 3 C17.66 3 18.32 3 19 3 C20.6 11.8 20.6 11.8 18.25 16.5 C16 19 16 19 13 21 C14.68796856 25.50124948 16.7857387 29.74056644 19 34 C19.34417969 34.67160156 19.68835938 35.34320313 20.04296875 36.03515625 C22.07726783 40.04894738 22.07726783 40.04894738 26 42 C26 42.99 26 43.98 26 45 C22.02283961 45.31817283 19.50341745 45.24164038 15.875 43.5 C10.61826214 38.9289236 7.82177052 32.98400369 5.08984375 26.6640625 C3.88816172 24.5247345 3.88816172 24.5247345 0 23 C0 15.41 0 7.82 0 0 Z " fill="#0A0A0A" transform="translate(42,222)"></path><path d="M0 0 C1.32 0 2.64 0 4 0 C6.21354167 6.640625 8.42708333 13.28125 10.640625 19.921875 C11.03443359 21.10072266 11.42824219 22.27957031 11.83398438 23.49414062 C12.60197616 25.80326165 13.36385534 28.11442605 14.11914062 30.42773438 C14.46654297 31.48798828 14.81394531 32.54824219 15.171875 33.640625 C15.47706055 34.57938477 15.78224609 35.51814453 16.09667969 36.48535156 C17.57306206 40.59528086 18.28052704 42.52035136 22 45 C22 45.66 22 46.32 22 47 C16.39 47 10.78 47 5 47 C5.33 46.01 5.66 45.02 6 44 C6.66 44 7.32 44 8 44 C7.01 40.04 6.02 36.08 5 32 C1.37 31.67 -2.26 31.34 -6 31 C-5.505 29.515 -5.505 29.515 -5 28 C-2.03 28 0.94 28 4 28 C3.71125 27.19175781 3.4225 26.38351563 3.125 25.55078125 C2.75375 24.48214844 2.3825 23.41351563 2 22.3125 C1.62875 21.25675781 1.2575 20.20101562 0.875 19.11328125 C0.0608143 16.21637944 -0.17709796 13.98299377 0 11 C-0.99 11 -1.98 11 -3 11 C-2.44894091 7.0507432 -1.61064629 3.65079826 0 0 Z " fill="#0A0A0A" transform="translate(385,219)"></path><path d="M0 0 C3.16658663 -0.05880804 6.33302993 -0.09386406 9.5 -0.125 C10.386875 -0.14175781 11.27375 -0.15851563 12.1875 -0.17578125 C17.8180364 -0.21718225 22.63330921 0.23708705 28 2 C30.57085334 4.63677266 32.90724222 7.15226496 33.09765625 10.9453125 C33.06510417 12.96354167 33.03255208 14.98177083 33 17 C32.34 17 31.68 17 31 17 C31 17.99 31 18.98 31 20 C26.77777778 23 26.77777778 23 24 23 C23.95101563 22.03578125 23.90203125 21.0715625 23.8515625 20.078125 C23.77679688 18.81484375 23.70203125 17.5515625 23.625 16.25 C23.55539062 14.99703125 23.48578125 13.7440625 23.4140625 12.453125 C23.06702035 8.33115687 23.06702035 8.33115687 21 5 C18.33945371 4.04995052 15.79103235 3.54019981 13 3 C13.01047363 3.61520508 13.02094727 4.23041016 13.03173828 4.86425781 C13.07338695 7.65946343 13.09935416 10.45460366 13.125 13.25 C13.15013672 14.70212891 13.15013672 14.70212891 13.17578125 16.18359375 C13.18222656 17.11816406 13.18867188 18.05273438 13.1953125 19.015625 C13.20578613 19.87446289 13.21625977 20.73330078 13.22705078 21.61816406 C12.98293323 24.17903596 12.28990512 25.79511029 11 28 C10.01 28 9.02 28 8 28 C7.34 27.34 6.68 26.68 6 26 C7.32 26 8.64 26 10 26 C8.68 25.34 7.36 24.68 6 24 C6.66 24 7.32 24 8 24 C8 23.34 8 22.68 8 22 C7.01 21.67 6.02 21.34 5 21 C4.96132813 19.30230469 4.96132813 19.30230469 4.921875 17.5703125 C4.86560374 16.08850257 4.80825618 14.60673323 4.75 13.125 C4.73582031 12.37863281 4.72164063 11.63226563 4.70703125 10.86328125 C4.64013659 8.42861619 4.64013659 8.42861619 4 5 C2.09371218 3.39662601 2.09371218 3.39662601 0 3 C0 2.01 0 1.02 0 0 Z " fill="#0B0B0B" transform="translate(410,219)"></path><path d="M0 0 C5.94 0 11.88 0 18 0 C18.020625 2.92875 18.04125 5.8575 18.0625 8.875 C18.071604 9.79651855 18.08070801 10.71803711 18.09008789 11.66748047 C18.09258545 12.39338379 18.09508301 13.11928711 18.09765625 13.8671875 C18.10551147 14.98262939 18.10551147 14.98262939 18.11352539 16.12060547 C18 18 18 18 17 20 C16.01 20.33 15.02 20.66 14 21 C13.34 21.66 12.68 22.32 12 23 C12 22.01 12 21.02 12 20 C11.01 19.67 10.02 19.34 9 19 C9 19.66 9 20.32 9 21 C8.34 21 7.68 21 7 21 C7 21.66 7 22.32 7 23 C7.66 23.33 8.32 23.66 9 24 C8.01 24.33 7.02 24.66 6 25 C5.34 24.34 4.68 23.68 4 23 C4.66 23 5.32 23 6 23 C6 22.01 6 21.02 6 20 C5.195625 19.855625 4.39125 19.71125 3.5625 19.5625 C1 19 1 19 0 18 C-0.08631874 16.65732587 -0.10706473 15.31025678 -0.09765625 13.96484375 C-0.09515869 13.23644287 -0.09266113 12.50804199 -0.09008789 11.75756836 C-0.08098389 10.8269458 -0.07187988 9.89632324 -0.0625 8.9375 C-0.041875 5.988125 -0.02125 3.03875 0 0 Z " fill="#FCFCFC" transform="translate(255,243)"></path><path d="M0 0 C1.32 0 2.64 0 4 0 C5.32 5.61 6.64 11.22 8 17 C4.04 17.495 4.04 17.495 0 18 C0 18.33 0 18.66 0 19 C2.97 19.33 5.94 19.66 9 20 C9 20.33 9 20.66 9 21 C4.71 21 0.42 21 -4 21 C-4.33 24.63 -4.66 28.26 -5 32 C-4.01 32.66 -3.02 33.32 -2 34 C-2 34.66 -2 35.32 -2 36 C-12.395 36.495 -12.395 36.495 -23 37 C-22.01 34.03 -22.01 34.03 -21 31 C-19.35 31.99 -17.7 32.98 -16 34 C-12.43217879 32.38584383 -11.18370511 31.4107228 -9.55859375 27.77734375 C-9.16745949 26.50261602 -8.79449546 25.2222066 -8.4375 23.9375 C-8.02586053 22.58259481 -7.61178884 21.22842623 -7.1953125 19.875 C-6.99583008 19.21371094 -6.79634766 18.55242187 -6.59082031 17.87109375 C-5.53733641 14.53477116 -4.180255 11.3293431 -2.84765625 8.09765625 C-1.77272816 5.43758075 -0.86374499 2.73519246 0 0 Z " fill="#1C1C1C" transform="translate(381,230)"></path><path d="M0 0 C1.32 0.99 2.64 1.98 4 3 C3.67 3.33 3.34 3.66 3 4 C3.58672853 6.71546221 4.22931067 9.37871454 4.9375 12.0625 C5.23043945 13.20041992 5.23043945 13.20041992 5.52929688 14.36132812 C6.01431165 16.24223908 6.50649664 18.12129838 7 20 C3.7 20 0.4 20 -3 20 C-2.67 20.66 -2.34 21.32 -2 22 C0.35599235 22.46751788 0.35599235 22.46751788 3.0625 22.625 C3.98160156 22.69976562 4.90070313 22.77453125 5.84765625 22.8515625 C6.55792969 22.90054688 7.26820313 22.94953125 8 23 C8 23.33 8 23.66 8 24 C3.71 24 -0.58 24 -5 24 C-5.33 27.63 -5.66 31.26 -6 35 C-5.01 35.66 -4.02 36.32 -3 37 C-3 37.66 -3 38.32 -3 39 C-7.62 39 -12.24 39 -17 39 C-17 38.34 -17 37.68 -17 37 C-16.22350098 36.57605957 -15.44700195 36.15211914 -14.64697266 35.71533203 C-11.39607313 33.608634 -10.88261081 32.17928489 -9.6484375 28.5546875 C-9.27203125 27.47703125 -8.895625 26.399375 -8.5078125 25.2890625 C-8.13398438 24.16242188 -7.76015625 23.03578125 -7.375 21.875 C-6.9934375 20.7715625 -6.611875 19.668125 -6.21875 18.53125 C-5.12660791 15.36027194 -4.05871266 12.18227544 -3 9 C-2.6896582 8.07219727 -2.37931641 7.14439453 -2.05957031 6.18847656 C-1.37061658 4.12646145 -0.68488214 2.06337103 0 0 Z " fill="#272727" transform="translate(162,227)"></path><path d="M0 0 C6 0 6 0 8.3125 1.3125 C11.14151927 4.14151927 11.18041977 7.05968387 11.25 10.875 C11.20254731 16.30042462 9.8336303 19.1663697 6 23 C4.02 23 2.04 23 0 23 C0 15.41 0 7.82 0 0 Z " fill="#F6F6F6" transform="translate(423,222)"></path><path d="M0 0 C6 0 6 0 8.875 1.875 C11.847774 6.24672647 11.79382487 9.85702825 11 15 C8.97368421 19.51315789 8.97368421 19.51315789 6 21 C4.02 21 2.04 21 0 21 C0 14.07 0 7.14 0 0 Z " fill="#F5F5F5" transform="translate(42,222)"></path><path d="M0 0 C6 0 6 0 8.3125 1.3125 C11.0064618 4.0064618 11.17541634 6.73283106 11.25 10.375 C11.21096045 14.3700474 10.58218201 16.82192984 8 20 C6 21 6 21 0 21 C0 14.07 0 7.14 0 0 Z " fill="#F6F6F6" transform="translate(339,222)"></path><path d="M0 0 C0.66 0.33 1.32 0.66 2 1 C2 2.32 2 3.64 2 5 C3.32 5 4.64 5 6 5 C5.67422369 12.16707877 2.34556372 17.76927124 -1 24 C-3.58410205 20.85512507 -5.13785682 17.69294159 -6.6875 13.9375 C-7.12449219 12.89464844 -7.56148438 11.85179687 -8.01171875 10.77734375 C-9 8 -9 8 -9 5 C-7.75 3.3125 -7.75 3.3125 -6 2 C-4.68 2 -3.36 2 -2 2 C-1.34 1.34 -0.68 0.68 0 0 Z " fill="#F3F3F3" transform="translate(469,217)"></path><path d="M0 0 C0.66 0 1.32 0 2 0 C2 0.99 2 1.98 2 3 C2.66 3 3.32 3 4 3 C4 2.34 4 1.68 4 1 C5.33333333 1.66666667 6.66666667 2.33333333 8 3 C8.66 2.34 9.32 1.68 10 1 C10.05814085 4.58326501 10.09364357 8.16640838 10.125 11.75 C10.14175781 12.76578125 10.15851563 13.7815625 10.17578125 14.828125 C10.18222656 15.8078125 10.18867188 16.7875 10.1953125 17.796875 C10.20578613 18.69760742 10.21625977 19.59833984 10.22705078 20.52636719 C9.98721676 23.13926856 9.32312064 24.75664666 8 27 C7.01 27 6.02 27 5 27 C4.34 26.34 3.68 25.68 3 25 C4.32 25 5.64 25 7 25 C5.68 24.34 4.36 23.68 3 23 C3.66 23 4.32 23 5 23 C5 22.34 5 21.68 5 21 C4.01 20.67 3.02 20.34 2 20 C1.93941406 18.89140625 1.87882812 17.7828125 1.81640625 16.640625 C1.73197049 15.1770718 1.64732401 13.71353075 1.5625 12.25 C1.52318359 11.52039063 1.48386719 10.79078125 1.44335938 10.0390625 C1.23852902 6.5727027 0.9147998 3.34666974 0 0 Z " fill="#060606" transform="translate(413,220)"></path><path d="M0 0 C1.32 0 2.64 0 4 0 C5.1996042 3.45425518 6.38260295 6.91396865 7.5625 10.375 C7.90474609 11.35984375 8.24699219 12.3446875 8.59960938 13.359375 C8.91865234 14.30039063 9.23769531 15.24140625 9.56640625 16.2109375 C9.86490479 17.08024902 10.16340332 17.94956055 10.47094727 18.84521484 C11 21 11 21 10 23 C8.68 22.34 7.36 21.68 6 21 C5.01 23.475 5.01 23.475 4 26 C0.89809455 21.34714182 -0.33846504 16.58467324 0 11 C-0.99 11 -1.98 11 -3 11 C-2.44894091 7.0507432 -1.61064629 3.65079826 0 0 Z " fill="#0C0C0C" transform="translate(385,219)"></path><path d="M0 0 C5.94 0 11.88 0 18 0 C17.67 0.99 17.34 1.98 17 3 C16.34 3 15.68 3 15 3 C15.30035156 3.69867188 15.60070312 4.39734375 15.91015625 5.1171875 C16.29042969 6.02726563 16.67070312 6.93734375 17.0625 7.875 C17.44535156 8.77992188 17.82820313 9.68484375 18.22265625 10.6171875 C19 13 19 13 18 15 C17.01 14.34 16.02 13.68 15 13 C13.68 14.32 12.36 15.64 11 17 C10.16180842 15.37750059 9.3295884 13.75191503 8.5 12.125 C8.0359375 11.22007812 7.571875 10.31515625 7.09375 9.3828125 C6 7 6 7 6 5 C5.195625 4.731875 4.39125 4.46375 3.5625 4.1875 C2.716875 3.795625 1.87125 3.40375 1 3 C0.67 2.01 0.34 1.02 0 0 Z " fill="#0F0F0F" transform="translate(445,219)"></path><path d="M0 0 C1.9989632 2.99844481 2.91035455 5.46134513 4 8.875 C5.76980147 14.5252772 5.76980147 14.5252772 8 20 C10.04105639 20.88693303 10.04105639 20.88693303 12 21 C12 21.66 12 22.32 12 23 C6.06 23 0.12 23 -6 23 C-6 22.01 -6 21.02 -6 20 C-5.01 20 -4.02 20 -3 20 C-3.33 18.02 -3.66 16.04 -4 14 C-3.01 13.67 -2.02 13.34 -1 13 C-0.67 13.33 -0.34 13.66 0 14 C0.33 12.68 0.66 11.36 1 10 C-0.32 9.34 -1.64 8.68 -3 8 C-2.690625 7.4225 -2.38125 6.845 -2.0625 6.25 C-1.07416636 4.15705816 -0.4831387 2.25464725 0 0 Z " fill="#151515" transform="translate(176,243)"></path><path d="M0 0 C0.66 0 1.32 0 2 0 C2 0.66 2 1.32 2 2 C2.8353125 2.3403125 2.8353125 2.3403125 3.6875 2.6875 C6.76711022 4.43538688 8.74603466 6.25869081 11 9 C11.8125 12.8125 11.8125 12.8125 12 16 C9.64430327 16.84132026 8.42062521 17.15105786 6.03125 16.29296875 C3.55660793 14.71776389 2.64694101 13.25287007 1.25 10.6875 C0.82203125 9.92824219 0.3940625 9.16898437 -0.046875 8.38671875 C-1.10787744 5.72986427 -1.25379425 3.83566267 -1 1 C-0.67 0.67 -0.34 0.34 0 0 Z " fill="#090909" transform="translate(348,249)"></path><path d="M0 0 C2 2 2 2 2.25 5.4375 C2 9 2 9 0 12 C1.32 12.66 2.64 13.32 4 14 C3.34 15.65 2.68 17.3 2 19 C0.68 18.67 -0.64 18.34 -2 18 C-2.66 15.69 -3.32 13.38 -4 11 C-7.3 11 -10.6 11 -14 11 C-14.33 10.01 -14.66 9.02 -15 8 C-11.7 8 -8.4 8 -5 8 C-4.67 7.01 -4.34 6.02 -4 5 C-3.34 4.67 -2.68 4.34 -2 4 C-0.86649466 1.98330173 -0.86649466 1.98330173 0 0 Z " fill="#0B0B0B" transform="translate(174,239)"></path><path d="M0 0 C4.62 0 9.24 0 14 0 C14 0.99 14 1.98 14 3 C13.26910156 3.15339844 12.53820312 3.30679688 11.78515625 3.46484375 C7.59202151 5.77606669 6.41687258 9.33085705 4.4375 13.5625 C3.69908523 15.13242847 2.94828037 16.69660533 2.18359375 18.25390625 C1.85931396 18.94814697 1.53503418 19.6423877 1.20092773 20.35766602 C0 22 0 22 -2.13647461 22.73413086 C-2.75143799 22.82186768 -3.36640137 22.90960449 -4 23 C-3.50628906 21.89140625 -3.01257813 20.7828125 -2.50390625 19.640625 C-1.85660329 18.17715743 -1.20947712 16.71361165 -0.5625 15.25 C-0.23701172 14.52039063 0.08847656 13.79078125 0.42382812 13.0390625 C0.73642578 12.33007812 1.04902344 11.62109375 1.37109375 10.890625 C1.65911865 10.24125977 1.94714355 9.59189453 2.24389648 8.92285156 C3.01208157 6.96927529 3.53642793 5.04528795 4 3 C2.68 3 1.36 3 0 3 C0 2.01 0 1.02 0 0 Z " fill="#0F0F0F" transform="translate(471,219)"></path><path d="M0 0 C1.2684375 -0.00773438 1.2684375 -0.00773438 2.5625 -0.015625 C5.25751829 0.27806289 6.82592209 0.614545 9 2.25 C9.609375 4.6328125 9.609375 4.6328125 9.75 7.375 C9.80671875 8.28507813 9.8634375 9.19515625 9.921875 10.1328125 C9.94765625 10.83148438 9.9734375 11.53015625 10 12.25 C6.24623848 10.99874616 5.75926711 9.6847596 4 6.25 C4 5.59 4 4.93 4 4.25 C-1.32170494 3.95437633 -1.32170494 3.95437633 -6 6.25 C-6.99 7.735 -6.99 7.735 -8 9.25 C-8.33 8.26 -8.66 7.27 -9 6.25 C-9.66 7.57 -10.32 8.89 -11 10.25 C-11.66 9.26 -12.32 8.27 -13 7.25 C-9.16619601 2.04698029 -6.53359558 -0.039839 0 0 Z " fill="#222222" transform="translate(131,217.75)"></path><path d="M0 0 C5 1 5 1 6.43359375 2.70703125 C6.76488281 3.40183594 7.09617187 4.09664062 7.4375 4.8125 C7.96150391 5.84310547 7.96150391 5.84310547 8.49609375 6.89453125 C9 9 9 9 8.26171875 11.21484375 C7 13 7 13 4.375 13.75 C3.59125 13.8325 2.8075 13.915 2 14 C2.33 14.99 2.66 15.98 3 17 C2.01 16.67 1.02 16.34 0 16 C0 10.72 0 5.44 0 0 Z " fill="#F1F1F1" transform="translate(42,246)"></path><path d="M0 0 C0.33 0 0.66 0 1 0 C1.07412765 5.21440513 1.12859104 10.42850393 1.16479492 15.64331055 C1.17988641 17.41745343 1.20036191 19.19155898 1.22631836 20.96557617 C1.26268641 23.51490487 1.27972238 26.06374059 1.29296875 28.61328125 C1.30845261 29.40712723 1.32393646 30.20097321 1.33988953 31.01887512 C1.34156781 36.50377804 1.34156781 36.50377804 -0.39331055 39.02416992 C-2 40 -2 40 -4 40 C-4.33 40.66 -4.66 41.32 -5 42 C-7 42 -7 42 -9.125 40 C-9.74375 39.34 -10.3625 38.68 -11 38 C-10.34 36.68 -9.68 35.36 -9 34 C-6.03 34 -3.06 34 0 34 C0 22.78 0 11.56 0 0 Z " fill="#C9C9C9" transform="translate(414,224)"></path><path d="M0 0 C1.485 0.99 1.485 0.99 3 2 C3 2.66 3 3.32 3 4 C3.66 4.33 4.32 4.66 5 5 C5.99 4.01 6.98 3.02 8 2 C9.80100099 3.63727363 10.95500875 4.9043936 12 7.125 C12.91202978 9.3530435 12.91202978 9.3530435 16 10 C16 10.99 16 11.98 16 13 C10.27956317 13.45763495 7.40116157 12.71653644 3 9 C0.5625 5.9375 0.5625 5.9375 -1 3 C-0.67 2.01 -0.34 1.02 0 0 Z " fill="#101010" transform="translate(52,254)"></path><path d="M0 0 C1.87939453 -0.34057617 1.87939453 -0.34057617 4.1328125 -0.29296875 C4.93847656 -0.28330078 5.74414062 -0.27363281 6.57421875 -0.26367188 C7.41597656 -0.23853516 8.25773437 -0.21339844 9.125 -0.1875 C9.97449219 -0.17396484 10.82398438 -0.16042969 11.69921875 -0.14648438 C13.79974837 -0.11108219 15.89995293 -0.05727401 18 0 C18 3.63 18 7.26 18 11 C17.34 11 16.68 11 16 11 C15.54625 10.030625 15.0925 9.06125 14.625 8.0625 C13.34213779 4.92920418 13.34213779 4.92920418 11 4 C9.50243129 3.90500497 8.00057068 3.87012802 6.5 3.875 C5.7059375 3.87242187 4.911875 3.86984375 4.09375 3.8671875 C1.94081466 3.86722004 1.94081466 3.86722004 0 5 C-0.66 4.34 -1.32 3.68 -2 3 C-1.34 2.01 -0.68 1.02 0 0 Z " fill="#090909" transform="translate(302,219)"></path><path d="M0 0 C0.12375 1.175625 0.12375 1.175625 0.25 2.375 C0.72806339 5.14749104 0.72806339 5.14749104 3.0625 6.3125 C3.701875 6.539375 4.34125 6.76625 5 7 C5 7.66 5 8.32 5 9 C-1.27 9 -7.54 9 -14 9 C-13 6 -13 6 -11.29296875 4.90234375 C-10.59816406 4.58394531 -9.90335937 4.26554687 -9.1875 3.9375 C-8.15689453 3.45603516 -8.15689453 3.45603516 -7.10546875 2.96484375 C-6.41066406 2.64644531 -5.71585937 2.32804687 -5 2 C-4.27425781 1.63003906 -3.54851562 1.26007813 -2.80078125 0.87890625 C-1 0 -1 0 0 0 Z " fill="#0E0E0E" transform="translate(339,257)"></path><path d="M0 0 C0.66 0 1.32 0 2 0 C2.6700834 2.12392506 3.33596797 4.24917524 4 6.375 C4.37125 7.55835938 4.7425 8.74171875 5.125 9.9609375 C6 13 6 13 6 15 C2.7 15 -0.6 15 -4 15 C-2.91266548 9.87399439 -1.77362508 4.94081272 0 0 Z " fill="#EAEAEA" transform="translate(163,232)"></path><path d="M0 0 C0.66 0 1.32 0 2 0 C2.6700834 2.12392506 3.33596797 4.24917524 4 6.375 C4.37125 7.55835938 4.7425 8.74171875 5.125 9.9609375 C6 13 6 13 6 15 C2.7 15 -0.6 15 -4 15 C-2.91266548 9.87399439 -1.77362508 4.94081272 0 0 Z " fill="#E9E9E9" transform="translate(383,232)"></path><path d="M0 0 C3.76068376 1.5042735 3.76068376 1.5042735 4.875 3.8125 C6.55805758 7.08511196 9.11451985 8.74179814 12 11 C11.67 11.99 11.34 12.98 11 14 C6.95504581 13.46870129 4.74253628 12.37432099 1.6875 9.6875 C0.99011719 9.09324219 0.29273437 8.49898438 -0.42578125 7.88671875 C-2 6 -2 6 -2 2 C-1.34 2 -0.68 2 0 2 C0 1.34 0 0.68 0 0 Z " fill="#080808" transform="translate(75,252)"></path><path d="M0 0 C1.32 0 2.64 0 4 0 C4 0.66 4 1.32 4 2 C3.34 2 2.68 2 2 2 C-0.7313611 10.65504594 -0.7313611 10.65504594 0 19 C2.12576782 19.46651207 2.12576782 19.46651207 4.5625 19.625 C5.38878906 19.69976562 6.21507812 19.77453125 7.06640625 19.8515625 C7.70449219 19.90054688 8.34257812 19.94953125 9 20 C9 20.33 9 20.66 9 21 C3.72 21 -1.56 21 -7 21 C-4.9376064 13.88474206 -2.59810321 6.93706745 0 0 Z " fill="#181818" transform="translate(381,230)"></path><path d="M0 0 C0.66 0 1.32 0 2 0 C3.59413203 8.76772616 3.59413203 8.76772616 1.3125 13.5 C-0.77159838 15.75307933 -2.14230116 16.97939327 -5 18 C-5 17.01 -5 16.02 -5 15 C-5.99 14.67 -6.98 14.34 -8 14 C-7.34 13.34 -6.68 12.68 -6 12 C-5.34 11.01 -4.68 10.02 -4 9 C-3.01 9 -2.02 9 -1 9 C0.61949011 6.42786866 1.04408751 5.32330841 0.625 2.25 C0.41875 1.5075 0.2125 0.765 0 0 Z " fill="#151515" transform="translate(59,225)"></path><path d="M0 0 C0.66 0.33 1.32 0.66 2 1 C2.144375 1.969375 2.28875 2.93875 2.4375 3.9375 C2.623125 4.948125 2.80875 5.95875 3 7 C3.99 7.66 4.98 8.32 6 9 C6 9.66 6 10.32 6 11 C1.38 11 -3.24 11 -8 11 C-8 10.34 -8 9.68 -8 9 C-6.8553125 8.38125 -6.8553125 8.38125 -5.6875 7.75 C-2.40698115 5.61384819 -1.50066356 3.55420317 0 0 Z " fill="#121212" transform="translate(153,255)"></path><path d="M0 0 C0.99 0.33 1.98 0.66 3 1 C3.94921875 3.06640625 3.94921875 3.06640625 4.6875 5.5625 C5.06455078 6.80193359 5.06455078 6.80193359 5.44921875 8.06640625 C5.63097656 8.70449219 5.81273437 9.34257812 6 10 C4.68 9.34 3.36 8.68 2 8 C0.68 9.32 -0.64 10.64 -2 12 C-3.65 8.37 -5.3 4.74 -7 1 C-6.01 1 -5.02 1 -4 1 C-4 1.66 -4 2.32 -4 3 C-2.68 2.67 -1.36 2.34 0 2 C0 1.34 0 0.68 0 0 Z " fill="#161616" transform="translate(458,224)"></path><path d="M0 0 C6.6 0 13.2 0 20 0 C20.33 1.32 20.66 2.64 21 4 C19.01432292 3.67447917 17.02864583 3.34895833 15.04296875 3.0234375 C12.68244176 2.80422152 12.68244176 2.80422152 10 5 C9.01 4.01 8.02 3.02 7 2 C7 2.66 7 3.32 7 4 C6.34 4 5.68 4 5 4 C5 3.01 5 2.02 5 1 C4.01 2.485 4.01 2.485 3 4 C2.01 3.67 1.02 3.34 0 3 C0 2.01 0 1.02 0 0 Z " fill="#101010" transform="translate(410,219)"></path><path d="M0 0 C0.99 0 1.98 0 3 0 C5.01151741 0.63106429 7.01363702 1.29373761 9 2 C9 2.66 9 3.32 9 4 C2.73 4 -3.54 4 -10 4 C-10 3.34 -10 2.68 -10 2 C-3.88585608 -1.47394541 -3.88585608 -1.47394541 0 0 Z " fill="#070707" transform="translate(420,262)"></path><path d="M0 0 C0.66 0 1.32 0 2 0 C2 4.62 2 9.24 2 14 C1.34 14 0.68 14 0 14 C-1.0064275 12.33720673 -2.00585407 10.67016516 -3 9 C-5.91765 7.0549 -7.62537285 6.54723683 -11 6 C-11 5.67 -11 5.34 -11 5 C-10.37351562 4.97421875 -9.74703125 4.9484375 -9.1015625 4.921875 C-8.28429687 4.86515625 -7.46703125 4.8084375 -6.625 4.75 C-5.81289063 4.70359375 -5.00078125 4.6571875 -4.1640625 4.609375 C-1.81161073 4.2077908 -1.81161073 4.2077908 -0.7109375 1.953125 C-0.47632813 1.30859375 -0.24171875 0.6640625 0 0 Z " fill="#0D0D0D" transform="translate(315,235)"></path><path d="M0 0 C0.66 0 1.32 0 2 0 C2.86646667 1.43011973 3.71781829 2.86940619 4.5625 4.3125 C5.03816406 5.11300781 5.51382813 5.91351563 6.00390625 6.73828125 C7 9 7 9 6 12 C5.67 12.33 5.34 12.66 5 13 C6.65 13 8.3 13 10 13 C10 13.66 10 14.32 10 15 C6.26512223 14.5020163 4.18762365 14.12508244 1 12 C0.48828125 9.1796875 0.48828125 9.1796875 0.3125 5.875 C0.24675781 4.77929688 0.18101563 3.68359375 0.11328125 2.5546875 C0.05720703 1.29011719 0.05720703 1.29011719 0 0 Z " fill="#1B1B1B" transform="translate(116,252)"></path><path d="M0 0 C5.94 0 11.88 0 18 0 C18 0.66 18 1.32 18 2 C15.5 3.625 15.5 3.625 13 5 C13 4.34 13 3.68 13 3 C9.31245243 3.49831724 7.39509338 4.10067643 5 7 C4.67 6.01 4.34 5.02 4 4 C1.99983534 2.79117904 1.99983534 2.79117904 0 2 C0 1.34 0 0.68 0 0 Z " fill="#0C0C0C" transform="translate(242,219)"></path><path d="M0 0 C2.8674273 4.30114095 4.72776481 8.7600934 4 14 C1 16 1 16 -2 16 C-2.33 16.66 -2.66 17.32 -3 18 C-3.33 16.68 -3.66 15.36 -4 14 C-3.01 13.67 -2.02 13.34 -1 13 C-0.67 13.33 -0.34 13.66 0 14 C0.33 12.68 0.66 11.36 1 10 C-0.32 9.34 -1.64 8.68 -3 8 C-2.5359375 7.13375 -2.5359375 7.13375 -2.0625 6.25 C-1.07416636 4.15705816 -0.4831387 2.25464725 0 0 Z " fill="#161616" transform="translate(176,243)"></path><path d="M0 0 C0.33 0 0.66 0 1 0 C1 5.28 1 10.56 1 16 C3.31 16.33 5.62 16.66 8 17 C8.33 18.32 8.66 19.64 9 21 C8.34 21 7.68 21 7 21 C7 21.66 7 22.32 7 23 C7.66 23.33 8.32 23.66 9 24 C8.01 24.33 7.02 24.66 6 25 C5.34 24.34 4.68 23.68 4 23 C4.66 23 5.32 23 6 23 C6 22.01 6 21.02 6 20 C5.195625 19.855625 4.39125 19.71125 3.5625 19.5625 C1 19 1 19 0 18 C-0.08631874 16.65732587 -0.10706473 15.31025678 -0.09765625 13.96484375 C-0.09443359 13.15595703 -0.09121094 12.34707031 -0.08789062 11.51367188 C-0.07951172 10.66353516 -0.07113281 9.81339844 -0.0625 8.9375 C-0.05798828 8.08349609 -0.05347656 7.22949219 -0.04882812 6.34960938 C-0.03700373 4.23304337 -0.01906769 2.11651315 0 0 Z " fill="#DADADA" transform="translate(255,243)"></path><path d="M0 0 C0.33 0.66 0.66 1.32 1 2 C0.67 2.66 0.34 3.32 0 4 C0.99 4.33 1.98 4.66 3 5 C-2.89738492 7.29342747 -7.66606918 8.34548714 -14 8 C-12.875 6 -12.875 6 -11 4 C-9 4 -7 4 -5 4 C-2.15079947 2.12230858 -2.15079947 2.12230858 0 0 Z " fill="#1E1E1E" transform="translate(99,259)"></path><path d="M0 0 C0.66 0 1.32 0 2 0 C1.09816346 3.60734616 0.27030212 5.71508696 -2.3125 8.4375 C-5 10 -5 10 -7.6875 9.6875 C-8.450625 9.460625 -9.21375 9.23375 -10 9 C-10.99 9.495 -10.99 9.495 -12 10 C-10.62845496 7.04590299 -9.01136276 4.55991624 -7 2 C-7 3.32 -7 4.64 -7 6 C-6.21625 5.505 -5.4325 5.01 -4.625 4.5 C-2 3 -2 3 0 3 C0 2.01 0 1.02 0 0 Z " fill="#161616" transform="translate(441,236)"></path><path d="M0 0 C2.97 0.495 2.97 0.495 6 1 C6 5 6 5 4.625 6.4375 C4.08875 6.953125 3.5525 7.46875 3 8 C1.80972016 10.59915538 1.80972016 10.59915538 1 13 C0.34 13 -0.32 13 -1 13 C-0.67 8.71 -0.34 4.42 0 0 Z " fill="#131313" transform="translate(202,218)"></path><path d="M0 0 C0.99 0 1.98 0 3 0 C2.34 3.96 1.68 7.92 1 12 C-0.98 12.33 -2.96 12.66 -5 13 C-4.54554036 11.58208592 -4.08625056 10.16571954 -3.625 8.75 C-3.24214844 7.56664062 -3.24214844 7.56664062 -2.8515625 6.359375 C-2.04826333 4.13372042 -1.10288338 2.09068328 0 0 Z " fill="#191919" transform="translate(374,251)"></path><path d="M0 0 C0 0.99 0 1.98 0 3 C-0.66 3 -1.32 3 -2 3 C-1.67 3.99 -1.34 4.98 -1 6 C-1.99 6.33 -2.98 6.66 -4 7 C-4 7.99 -4 8.98 -4 10 C-5.98 10 -7.96 10 -10 10 C-10 9.01 -10 8.02 -10 7 C-9.01 7 -8.02 7 -7 7 C-6.95875 6.401875 -6.9175 5.80375 -6.875 5.1875 C-6 3 -6 3 -2.9375 1.25 C-1.968125 0.8375 -0.99875 0.425 0 0 Z " fill="#090909" transform="translate(180,256)"></path><path d="M0 0 C1.1640625 1.61328125 1.1640625 1.61328125 2 4 C1.0234375 6.98046875 1.0234375 6.98046875 -0.625 10.1875 C-1.41777344 11.78658203 -1.41777344 11.78658203 -2.2265625 13.41796875 C-4 16 -4 16 -6.11083984 16.66137695 C-6.7342627 16.77312256 -7.35768555 16.88486816 -8 17 C-6.85700498 14.35290709 -5.71075628 11.70730948 -4.5625 9.0625 C-4.23701172 8.30775391 -3.91152344 7.55300781 -3.57617188 6.77539062 C-1.11328125 1.11328125 -1.11328125 1.11328125 0 0 Z " fill="#1D1D1D" transform="translate(475,225)"></path><path d="M0 0 C2.09749995 2.35968744 2.96905704 3.54616994 3.1875 6.75 C3.125625 7.4925 3.06375 8.235 3 9 C0.39417629 9.93065133 -0.64198224 10.14917407 -3.25 9.0625 C-3.8275 8.711875 -4.405 8.36125 -5 8 C-5 7.01 -5 6.02 -5 5 C-4.01 5 -3.02 5 -2 5 C-1.34 3.35 -0.68 1.7 0 0 Z " fill="#111111" transform="translate(357,256)"></path><path d="M0 0 C0.66 0.33 1.32 0.66 2 1 C2 1.66 2 2.32 2 3 C1.34 3 0.68 3 0 3 C-0.0825 3.5775 -0.165 4.155 -0.25 4.75 C-1.20531013 7.6159304 -2.78469173 8.9990764 -5 11 C-7.475 10.01 -7.475 10.01 -10 9 C-10 8.01 -10 7.02 -10 6 C-7.36 5.67 -4.72 5.34 -2 5 C-1.34 3.35 -0.68 1.7 0 0 Z " fill="#191919" transform="translate(349,237)"></path><path d="M0 0 C0.33 0.66 0.66 1.32 1 2 C2.93330603 3.09166275 2.93330603 3.09166275 5 4 C5.66 4.33 6.32 4.66 7 5 C7.33 4.34 7.66 3.68 8 3 C8.99 3 9.98 3 11 3 C10.67 4.32 10.34 5.64 10 7 C6.66666667 7 3.33333333 7 0 7 C-0.38133299 5.0085944 -0.71325582 3.00720923 -1 1 C-0.67 0.67 -0.34 0.34 0 0 Z " fill="#070707" transform="translate(121,235)"></path><path d="M0 0 C1.32 2.64 2.64 5.28 4 8 C0 6 0 6 -3 4 C-3 3.34 -3 2.68 -3 2 C-3.66 2.66 -4.32 3.32 -5 4 C-5.66 4.66 -6.32 5.32 -7 6 C-7.33 4.35 -7.66 2.7 -8 1 C-5.29120665 -0.35439668 -2.99066732 -0.06501451 0 0 Z " fill="#151515" transform="translate(353,247)"></path><path d="M0 0 C1.32 0.99 2.64 1.98 4 3 C3.67 3.66 3.34 4.32 3 5 C2.34 5 1.68 5 1 5 C0.34 7.97 -0.32 10.94 -1 14 C-1.99 13.67 -2.98 13.34 -4 13 C-3.52140759 11.39566191 -3.04210442 9.79153584 -2.5625 8.1875 C-2.29566406 7.29417969 -2.02882812 6.40085938 -1.75390625 5.48046875 C-1.19612127 3.64526945 -0.60655425 1.81966274 0 0 Z " fill="#212121" transform="translate(162,227)"></path><path d="M0 0 C0 3.63 0 7.26 0 11 C-0.66 11 -1.32 11 -2 11 C-2.45375 10.030625 -2.9075 9.06125 -3.375 8.0625 C-4.65786221 4.92920418 -4.65786221 4.92920418 -7 4 C-7 3.34 -7 2.68 -7 2 C-6.38125 1.855625 -5.7625 1.71125 -5.125 1.5625 C-3.39532363 1.10464449 -1.74950101 0 0 0 Z " fill="#1A1A1A" transform="translate(320,219)"></path><path d="M0 0 C-1.32 2.31 -2.64 4.62 -4 7 C-4.66 6.01 -5.32 5.02 -6 4 C-6.66 5.32 -7.32 6.64 -8 8 C-8.66 7.01 -9.32 6.02 -10 5 C-5.03424658 -1.67808219 -5.03424658 -1.67808219 0 0 Z " fill="#191919" transform="translate(128,220)"></path><path d="M0 0 C2.4375 0.375 2.4375 0.375 5 1 C5.33 1.66 5.66 2.32 6 3 C8.12576782 3.46651207 8.12576782 3.46651207 10.5625 3.625 C11.38878906 3.69976562 12.21507812 3.77453125 13.06640625 3.8515625 C13.70449219 3.90054688 14.34257812 3.94953125 15 4 C15 4.33 15 4.66 15 5 C9.72 5 4.44 5 -1 5 C-0.67 3.35 -0.34 1.7 0 0 Z " fill="#3B3B3B" transform="translate(375,246)"></path><path d="M0 0 C0.99 0 1.98 0 3 0 C2.38461538 6.52307692 2.38461538 6.52307692 0.4375 8.9375 C-0.036875 9.288125 -0.51125 9.63875 -1 10 C-1.33 9.34 -1.66 8.68 -2 8 C-1.67 7.34 -1.34 6.68 -1 6 C-1.99 5.67 -2.98 5.34 -4 5 C-3.34 5 -2.68 5 -2 5 C-1.34 3.35 -0.68 1.7 0 0 Z " fill="#060606" transform="translate(51,240)"></path><path d="M0 0 C2 0 2 0 3.625 1.5 C4.07875 1.995 4.5325 2.49 5 3 C5.66 2.34 6.32 1.68 7 1 C7 2.65 7 4.3 7 6 C5.35 6.66 3.7 7.32 2 8 C0 6 0 6 -1 3 C-0.67 2.01 -0.34 1.02 0 0 Z " fill="#040404" transform="translate(351,225)"></path><path d="M0 0 C5.53846154 0.61538462 5.53846154 0.61538462 7.875 2.5625 C8.431875 3.2740625 8.431875 3.2740625 9 4 C8.38125 4.103125 7.7625 4.20625 7.125 4.3125 C4.63473516 4.87525373 4.63473516 4.87525373 3 8 C0.9375 5.6875 0.9375 5.6875 -1 3 C-0.67 2.01 -0.34 1.02 0 0 Z " fill="#1D1D1D" transform="translate(49,219)"></path><path d="M0 0 C0.66 0 1.32 0 2 0 C1.88590407 1.45922693 1.75834456 2.91740598 1.625 4.375 C1.55539062 5.18710937 1.48578125 5.99921875 1.4140625 6.8359375 C1 9 1 9 -1 11 C-1.99 10.34 -2.98 9.68 -4 9 C-2.80100302 5.9168649 -1.52299523 2.93720508 0 0 Z " fill="#0F0F0F" transform="translate(321,254)"></path><path d="M0 0 C2.38932765 3.58399147 3 5.73195001 3 10 C2.34 10.66 1.68 11.32 1 12 C0.01 12 -0.98 12 -2 12 C-1.34 8.04 -0.68 4.08 0 0 Z " fill="#D6D6D6" transform="translate(323,254)"></path><path d="M0 0 C0 2.83967231 -0.40267181 5.23735711 -1 8 C-1.4125 7.38125 -1.825 6.7625 -2.25 6.125 C-4.05573879 3.93231719 -5.4090534 3.07211583 -8 2 C-7.67 1.34 -7.34 0.68 -7 0 C-2.52459016 -1.26229508 -2.52459016 -1.26229508 0 0 Z " fill="#181818" transform="translate(50,243)"></path><path d="M0 0 C1.32 0 2.64 0 4 0 C4.66 2.31 5.32 4.62 6 7 C5.01 7.33 4.02 7.66 3 8 C2.67 6.68 2.34 5.36 2 4 C1.01 4 0.02 4 -1 4 C-0.67 2.68 -0.34 1.36 0 0 Z " fill="#1A1A1A" transform="translate(165,219)"></path><path d="M0 0 C2 3.75 2 3.75 2 6 C1.34 6 0.68 6 0 6 C-0.33 6.99 -0.66 7.98 -1 9 C-1.99 8.67 -2.98 8.34 -4 8 C-4 6.35 -4 4.7 -4 3 C-3.01 3.495 -3.01 3.495 -2 4 C-1.34 2.68 -0.68 1.36 0 0 Z " fill="#040404" transform="translate(122,223)"></path><path d="M0 0 C1.32 0 2.64 0 4 0 C4.625 2.375 4.625 2.375 5 5 C4.34 5.66 3.68 6.32 3 7 C3 5.68 3 4.36 3 3 C2.34 3 1.68 3 1 3 C0.34 4.98 -0.32 6.96 -1 9 C-1.66 8.67 -2.32 8.34 -3 8 C-2.01 5.36 -1.02 2.72 0 0 Z " fill="#151515" transform="translate(385,219)"></path><path d="M0 0 C2 2 2 2 2.125 5.125 C2.08375 6.07375 2.0425 7.0225 2 8 C1.34 8 0.68 8 0 8 C0.33 9.32 0.66 10.64 1 12 C0.01 11.67 -0.98 11.34 -2 11 C-1.125 3.375 -1.125 3.375 0 0 Z " fill="#E4E4E4" transform="translate(157,251)"></path><path d="M0 0 C2.475 0.99 2.475 0.99 5 2 C5 4 5 6 5 8 C4.278125 7.525625 3.55625 7.05125 2.8125 6.5625 C0.10524774 5.05847097 -1.96194275 4.43400818 -5 4 C-5 3.67 -5 3.34 -5 3 C-3.35 2.67 -1.7 2.34 0 2 C0 1.34 0 0.68 0 0 Z " fill="#DEDEDE" transform="translate(352,216)"></path><path d="M0 0 C1.98 0.66 3.96 1.32 6 2 C5.67 2.99 5.34 3.98 5 5 C3.125 5.875 3.125 5.875 1 6 C-0.75 4.5625 -0.75 4.5625 -2 3 C-1.34 2.01 -0.68 1.02 0 0 Z " fill="#F5F5F5" transform="translate(82,265)"></path><path d="M0 0 C0 1.32 0 2.64 0 4 C-4.75 3.125 -4.75 3.125 -7 2 C-7 1.34 -7 0.68 -7 0 C-3.86650268 -1.04449911 -3.01031744 -0.93423645 0 0 Z " fill="#111111" transform="translate(86,262)"></path><path d="M0 0 C1.32 0 2.64 0 4 0 C4.99 2.97 5.98 5.94 7 9 C6.01 8.67 5.02 8.34 4 8 C3.66666667 6.66666667 3.33333333 5.33333333 3 4 C2.01 3.67 1.02 3.34 0 3 C0 2.01 0 1.02 0 0 Z " fill="#1D1D1D" transform="translate(76,250)"></path><path d="M0 0 C1.5625 1.8125 1.5625 1.8125 3 4 C2.67 4.99 2.34 5.98 2 7 C0.68 6.67 -0.64 6.34 -2 6 C-2.33 6.66 -2.66 7.32 -3 8 C-3.33 6.68 -3.66 5.36 -4 4 C-3.34 4 -2.68 4 -2 4 C-1.34 2.68 -0.68 1.36 0 0 Z " fill="#050505" transform="translate(349,241)"></path><path d="M0 0 C2.5654594 2.5654594 2.54046087 4.47686668 3 8 C0.5625 7.3125 0.5625 7.3125 -2 6 C-2.8125 3.375 -2.8125 3.375 -3 1 C-2.01 0.67 -1.02 0.34 0 0 Z " fill="#1B1B1B" transform="translate(393,234)"></path><path d="M0 0 C0 2.31 0 4.62 0 7 C-0.66 7 -1.32 7 -2 7 C-2 6.34 -2 5.68 -2 5 C-3.65 4.67 -5.3 4.34 -7 4 C-2.25 0 -2.25 0 0 0 Z " fill="#1E1E1E" transform="translate(238,217)"></path><path d="M0 0 C0.66 0.66 1.32 1.32 2 2 C-0.25 4.5 -0.25 4.5 -3 7 C-4.32 7 -5.64 7 -7 7 C-7 6.34 -7 5.68 -7 5 C-6.01 4.67 -5.02 4.34 -4 4 C-3.67 3.01 -3.34 2.02 -3 1 C-2.01 0.67 -1.02 0.34 0 0 Z " fill="#111111" transform="translate(106,256)"></path><path d="M0 0 C0.66 0 1.32 0 2 0 C2 1.32 2 2.64 2 4 C1.01 4.66 0.02 5.32 -1 6 C-1.33 6.99 -1.66 7.98 -2 9 C-2.99 9 -3.98 9 -5 9 C-3.7580393 5.56072421 -2.44259716 2.74792181 0 0 Z " fill="#121212" transform="translate(396,246)"></path><path d="M0 0 C2 1 2 1 2 1 Z M-2 1 C-1.34 1.33 -0.68 1.66 0 2 C0 3.65 0 5.3 0 7 C-2.31 7.66 -4.62 8.32 -7 9 C-5.35 6.36 -3.7 3.72 -2 1 Z " fill="#E6E6E6" transform="translate(111,253)"></path><path d="M0 0 C2 2 2 2 2.125 5.625 C2.08375 6.73875 2.0425 7.8525 2 9 C1.01 9 0.02 9 -1 9 C-1 8.01 -1 7.02 -1 6 C-1.66 5.67 -2.32 5.34 -3 5 C-2.01 3.35 -1.02 1.7 0 0 Z " fill="#040404" transform="translate(174,239)"></path><path d="M0 0 C2.31 0 4.62 0 7 0 C7 0.66 7 1.32 7 2 C7.66 2.33 8.32 2.66 9 3 C5.52674819 4.1577506 2.63932552 4.06866652 -1 4 C-0.67 2.68 -0.34 1.36 0 0 Z " fill="#1A1A1A" transform="translate(87,218)"></path><path d="M0 0 C1.0209375 0.2165625 1.0209375 0.2165625 2.0625 0.4375 C5.36273082 1.06945909 8.67144426 1.54313941 12 2 C11.01 2.33 10.02 2.66 9 3 C9 3.66 9 4.32 9 5 C8.01 5 7.02 5 6 5 C6 4.34 6 3.68 6 3 C4.35 3 2.7 3 1 3 C0.67 2.01 0.34 1.02 0 0 Z " fill="#050505" transform="translate(120,262)"></path><path d="M0 0 C0.86625 0.556875 0.86625 0.556875 1.75 1.125 C1.75 1.785 1.75 2.445 1.75 3.125 C-0.89 3.125 -3.53 3.125 -6.25 3.125 C-6.25 2.465 -6.25 1.805 -6.25 1.125 C-2.80384615 -1.09038462 -2.80384615 -1.09038462 0 0 Z " fill="#080808" transform="translate(151.25,262.875)"></path><path d="M0 0 C0.99 0.33 1.98 0.66 3 1 C3.99 1 4.98 1 6 1 C5.34 2.65 4.68 4.3 4 6 C2.68 5.67 1.36 5.34 0 5 C0 3.35 0 1.7 0 0 Z " fill="#030303" transform="translate(172,252)"></path><path d="M0 0 C-0.99 0.33 -1.98 0.66 -3 1 C-3.33 1.99 -3.66 2.98 -4 4 C-5.65 4.33 -7.3 4.66 -9 5 C-8.6875 3.0625 -8.6875 3.0625 -8 1 C-5.07175348 0.02391783 -3.04386724 -0.08226668 0 0 Z " fill="#090909" transform="translate(89,219)"></path><path d="M0 0 C2.5 1.3125 2.5 1.3125 5 3 C5 3.99 5 4.98 5 6 C2.69 6 0.38 6 -2 6 C-1.34 5.01 -0.68 4.02 0 3 C0 2.01 0 1.02 0 0 Z " fill="#323232" transform="translate(63,261)"></path><path d="M0 0 C0.66 0 1.32 0 2 0 C0.83857315 4.35535069 -0.07699505 6.64619703 -4 9 C-4.33 7.68 -4.66 6.36 -5 5 C-3.35 4.34 -1.7 3.68 0 3 C0 2.01 0 1.02 0 0 Z " fill="#1F1F1F" transform="translate(441,236)"></path><path d="M0 0 C1.9375 0.6875 1.9375 0.6875 2.9375 2.6875 C0.60535852 3.89378008 -1.55892139 4.8529738 -4.0625 5.6875 C-4.0625 4.0375 -4.0625 2.3875 -4.0625 0.6875 C-2.0625 -0.3125 -2.0625 -0.3125 0 0 Z " fill="#040404" transform="translate(393.0625,240.3125)"></path><path d="M0 0 C0.33 0.66 0.66 1.32 1 2 C0.67 2.66 0.34 3.32 0 4 C0.99 4.33 1.98 4.66 3 5 C1.02 5.66 -0.96 6.32 -3 7 C-2.25 2.25 -2.25 2.25 0 0 Z " fill="#252525" transform="translate(99,259)"></path><path d="M0 0 C0.66 0.66 1.32 1.32 2 2 C1.67 2.99 1.34 3.98 1 5 C-0.65 5.33 -2.3 5.66 -4 6 C-2.25 1.125 -2.25 1.125 0 0 Z " fill="#050505" transform="translate(373,258)"></path><path d="M0 0 C1.32 0 2.64 0 4 0 C2.515 5.445 2.515 5.445 1 11 C0.67 11 0.34 11 0 11 C-0.25 4.375 -0.25 4.375 2 1 C1.34 0.67 0.68 0.34 0 0 Z " fill="#E5E5E5" transform="translate(152,245)"></path><path d="M0 0 C0.99 0.33 1.98 0.66 3 1 C2.34 3.31 1.68 5.62 1 8 C0.01 7.67 -0.98 7.34 -2 7 C-2 6.01 -2 5.02 -2 4 C-1.34 4 -0.68 4 0 4 C0 2.68 0 1.36 0 0 Z " fill="#141414" transform="translate(108,248)"></path><path d="M0 0 C0.99 0.33 1.98 0.66 3 1 C2.74438677 3.3431213 2.40729228 5.67843403 2 8 C1.01 8.495 1.01 8.495 0 9 C0 6.03 0 3.06 0 0 Z " fill="#2F2F2F" transform="translate(102,240)"></path><path d="M0 0 C0.99 0.33 1.98 0.66 3 1 C3 2.32 3 3.64 3 5 C1.68 5.33 0.36 5.66 -1 6 C-1.625 4.125 -1.625 4.125 -2 2 C-1.34 1.34 -0.68 0.68 0 0 Z " fill="#DFDFDF" transform="translate(353,241)"></path><path d="M0 0 C2.31 0.33 4.62 0.66 7 1 C5.68 2.32 4.36 3.64 3 5 C1.5 3.625 1.5 3.625 0 2 C0 1.34 0 0.68 0 0 Z " fill="#141414" transform="translate(123,241)"></path><path d="M0 0 C0.33 2.64 0.66 5.28 1 8 C0.01 7.67 -0.98 7.34 -2 7 C-2.33 5.02 -2.66 3.04 -3 1 C-1 0 -1 0 0 0 Z " fill="#171717" transform="translate(140,222)"></path><path d="M0 0 C1.65 0 3.3 0 5 0 C5.625 1.875 5.625 1.875 6 4 C5.34 4.66 4.68 5.32 4 6 C2.62437146 4.71034824 1.29233607 3.37310707 0 2 C0 1.34 0 0.68 0 0 Z " fill="#060606" transform="translate(430,220)"></path><path d="M0 0 C1.9375 0.8125 1.9375 0.8125 4 2 C4.33 2.99 4.66 3.98 5 5 C3.68 5 2.36 5 1 5 C0.67 5.66 0.34 6.32 0 7 C0 4.69 0 2.38 0 0 Z " fill="#EAEAEA" transform="translate(238,217)"></path><path d="M0 0 C0.99 0.33 1.98 0.66 3 1 C2.67 2.32 2.34 3.64 2 5 C0.35 5.33 -1.3 5.66 -3 6 C-3 5.34 -3 4.68 -3 4 C-2.34 4 -1.68 4 -1 4 C-0.67 2.68 -0.34 1.36 0 0 Z " fill="#D5D5D5" transform="translate(458,258)"></path><path d="M0 0 C1.0625 1.8125 1.0625 1.8125 2 4 C1.67 4.99 1.34 5.98 1 7 C-1.0625 7.6875 -1.0625 7.6875 -3 8 C-1.125 1.125 -1.125 1.125 0 0 Z " fill="#232323" transform="translate(475,225)"></path><path d="M0 0 C0.66 0.33 1.32 0.66 2 1 C2 2.65 2 4.3 2 6 C1.01 6.33 0.02 6.66 -1 7 C-2 4 -2 4 -1.0625 1.8125 C-0.5365625 0.9153125 -0.5365625 0.9153125 0 0 Z " fill="#070707" transform="translate(153,255)"></path><path d="M0 0 C2.97 0 5.94 0 9 0 C9.33 0.99 9.66 1.98 10 3 C9.01 3.495 9.01 3.495 8 4 C7.01 3.34 6.02 2.68 5 2 C3.34450469 1.61500109 1.6777567 1.27206865 0 1 C0 0.67 0 0.34 0 0 Z " fill="#323232" transform="translate(304,240)"></path><path d="M0 0 C2.97 0.495 2.97 0.495 6 1 C5.01 1.495 5.01 1.495 4 2 C4 2.66 4 3.32 4 4 C2.68 4.33 1.36 4.66 0 5 C0 3.35 0 1.7 0 0 Z " fill="#0D0D0D" transform="translate(202,218)"></path><path d="M0 0 C1.33333333 0 2.66666667 0 4 0 C4 1.98 4 3.96 4 6 C3.01 6 2.02 6 1 6 C0.67 4.02 0.34 2.04 0 0 Z " fill="#EEEEEE" transform="translate(211,256)"></path><path d="M0 0 C0.33 0 0.66 0 1 0 C1.33 3.63 1.66 7.26 2 11 C1.34 9.68 0.68 8.36 0 7 C-0.66 6.67 -1.32 6.34 -2 6 C-1.34 4.02 -0.68 2.04 0 0 Z " fill="#D0D0D0" transform="translate(115,252)"></path><path d="M0 0 C1.32 1.32 2.64 2.64 4 4 C3.34 4 2.68 4 2 4 C1.67 4.66 1.34 5.32 1 6 C0.01 4.68 -0.98 3.36 -2 2 C-1.34 1.34 -0.68 0.68 0 0 Z " fill="#030303" transform="translate(460,231)"></path><path d="M0 0 C0.33 0 0.66 0 1 0 C1 2.64 1 5.28 1 8 C-0.32 7.34 -1.64 6.68 -3 6 C-2.01 4.02 -1.02 2.04 0 0 Z " fill="#2D2D2D" transform="translate(358,227)"></path><path d="M0 0 C0.66 0 1.32 0 2 0 C2 2.31 2 4.62 2 7 C1.34 7 0.68 7 0 7 C-0.38133299 5.0085944 -0.71325582 3.00720923 -1 1 C-0.67 0.67 -0.34 0.34 0 0 Z " fill="#111111" transform="translate(236,224)"></path><path d="M0 0 C2.31 0 4.62 0 7 0 C5 3 5 3 4 4 C1.9375 3.5625 1.9375 3.5625 0 3 C0 2.01 0 1.02 0 0 Z " fill="#1B1B1B" transform="translate(410,219)"></path><path d="M0 0 C1.98 0 3.96 0 6 0 C6 1.32 6 2.64 6 4 C4.02 3.34 2.04 2.68 0 2 C0 1.34 0 0.68 0 0 Z " fill="#111111" transform="translate(290,219)"></path><path d="M0 0 C1.65 0 3.3 0 5 0 C5 1.98 5 3.96 5 6 C3.68 5.67 2.36 5.34 1 5 C1.66 5 2.32 5 3 5 C3 4.34 3 3.68 3 3 C2.34 3 1.68 3 1 3 C0.67 2.01 0.34 1.02 0 0 Z " fill="#DADADA" transform="translate(257,216)"></path></svg>