<?xml version="1.0" encoding="UTF-8"?>
<svg xmlns="http://www.w3.org/2000/svg" viewBox="0 0 200 200">
  <path d="M 100 140 L 70 110 Q 65 105 65 95 Q 65 82 75 77 Q 85 72 95 82 L 100 87 L 105 82 Q 115 72 125 77 Q 135 82 135 95 Q 135 105 130 110 Z" fill="#7c3aed"/>
  <circle cx="60" cy="55" r="10" fill="#a78bfa"/>
  <line x1="60" y1="65" x2="60" y2="85" stroke="#a78bfa" stroke-width="3"/>
  <path d="M 50 75 L 60 77 L 70 75" stroke="#a78bfa" stroke-width="3" fill="none"/>
  <circle cx="140" cy="55" r="10" fill="#a78bfa"/>
  <line x1="140" y1="65" x2="140" y2="85" stroke="#a78bfa" stroke-width="3"/>
  <path d="M 130 75 L 140 77 L 150 75" stroke="#a78bfa" stroke-width="3" fill="none"/>
  <circle cx="100" cy="45" r="10" fill="#c4b5fd"/>
  <line x1="100" y1="55" x2="100" y2="75" stroke="#c4b5fd" stroke-width="3"/>
  <path d="M 90 65 L 100 67 L 110 65" stroke="#c4b5fd" stroke-width="3" fill="none"/>
  <path d="M 68 70 Q 82 68 92 75" stroke="#ddd6fe" stroke-width="2" fill="none"/>
  <path d="M 132 70 Q 118 68 108 75" stroke="#ddd6fe" stroke-width="2" fill="none"/>
  <circle cx="50" cy="105" r="8" fill="#c4b5fd"/>
  <circle cx="150" cy="105" r="8" fill="#c4b5fd"/>
</svg>
