<?xml version="1.0" encoding="UTF-8"?>
<svg xmlns="http://www.w3.org/2000/svg" viewBox="0 0 200 200">
  <circle cx="100" cy="100" r="40" fill="#059669"/>
  <circle cx="100" cy="100" r="35" fill="none" stroke="#ffffff" stroke-width="2"/>
  <path d="M 100 70 L 108 88 L 120 88 L 110 96 L 115 110 L 100 100 L 85 110 L 90 96 L 80 88 L 92 88 Z" fill="#ffffff"/>
  <ellipse cx="145" cy="65" rx="10" ry="12" fill="none" stroke="#0ea5e9" stroke-width="2.5"/>
  <line x1="145" y1="77" x2="145" y2="88" stroke="#0ea5e9" stroke-width="2.5"/>
  <polygon points="50,65 60,50 70,60" fill="#dc2626"/>
  <circle cx="63" cy="53" r="2" fill="#ffffff"/>
  <path d="M 45 135 Q 50 130 55 135 Q 60 140 65 135" stroke="#3b82f6" stroke-width="2" fill="none"/>
  <circle cx="145" cy="135" r="10" fill="#dc2626"/>
  <circle cx="145" cy="135" r="6" fill="#ffffff"/>
  <circle cx="145" cy="135" r="3" fill="#dc2626"/>
</svg>
